# xmcd
#
# Track frame offsets: 
#        150
#        17656
#        35677
#        55825
#        72340
#        87804
#        102893
#        119099
#        137279
#        152506
#        167286
#        183787
#        198068
#
# Disc length: 2864 seconds
#
# Revision: 0
# Processed by: cddbd v1.5.2PL0 Copyright (c) Steve Scherf et al.
# Submitted via: ExactAudioCopy v0.99pb4
#
DISCID=9a0b2e0d
DTITLE=Roger Creager - Here It Is
DYEAR=2008
DGENRE=Country
TTITLE0=I Love Being Lonesome
TTITLE1=Driving Home
TTITLE2=I Loved You When
TTITLE3=Tangle Me In You
TTITLE4=I'm From The Beer Joint
TTITLE5=A Good Day For Sunsets
TTITLE6=She Chose You
TTITLE7=Let's Run
TTITLE8=Habit (Needle In My Arm)
TTITLE9=I'm Missing You
TTITLE10=The Man I Used To Be
TTITLE11=My Ship Goes Down
TTITLE12=Cowboys And Sailors
EXTD=
EXTT0=
EXTT1=
EXTT2=
EXTT3=
EXTT4=
EXTT5=
EXTT6=
EXTT7=
EXTT8=
EXTT9=
EXTT10=
EXTT11=
EXTT12=
PLAYORDER=
